/vscmnt/brussel_pixiu_data/_data_brussel/112/vsc11236/PredSimResults/SUBJ04opt3D/expIG/worker_13.mot
version=1
nRows=4
nColumns=50
inDegrees=yes
endheader
                time	         pelvis_tilt	         pelvis_list	     pelvis_rotation	           pelvis_tx	           pelvis_ty	           pelvis_tz	       hip_flexion_r	     hip_adduction_r	      hip_rotation_r	        knee_angle_r	       ankle_angle_r	         mtp_angle_r	       hip_flexion_l	     hip_adduction_l	      hip_rotation_l	        knee_angle_l	       ankle_angle_l	         mtp_angle_l	    lumbar_extension	      lumbar_bending	     lumbar_rotation	 ercspn_r/activation	 intobl_r/activation	 extobl_r/activation	    abd_r/activation	    add_r/activation	hamstrings_r/activation	bifemsh_r/activation	glut_max_r/activation	iliopsoas_r/activation	rect_fem_r/activation	  vasti_r/activation	gastroc_r/activation	 soleus_r/activation	tib_ant_r/activation	 ercspn_l/activation	 intobl_l/activation	 extobl_l/activation	    abd_l/activation	    add_l/activation	hamstrings_l/activation	bifemsh_l/activation	glut_max_l/activation	iliopsoas_l/activation	rect_fem_l/activation	  vasti_l/activation	gastroc_l/activation	 soleus_l/activation	tib_ant_l/activation	
          0.40652905	         -5.58393940	          1.29359058	         -5.43220739	          0.73175228	          0.87389878	          0.00295795	        -15.28051367	         -0.67880750	         -4.27220939	        -11.95127588	          1.45614384	         36.88952982	         36.28756616	          0.09517328	         -5.70514859	        -20.48500437	         11.29024772	          0.39782581	        -12.54390614	         -1.99611771	         11.84914790	          0.13110621	          0.00999999	          0.00999999	          0.01966092	          0.11867872	          0.03760268	          0.21043424	          0.01533924	          0.58652225	          0.00999999	          0.01662505	          0.26449402	          0.16842379	          0.00999999	          0.14263593	          0.11627412	          0.02143602	          0.00999999	          0.38414260	          0.35428643	          0.04333359	          0.00999999	          0.21662138	          0.01662505	          0.10244325	          0.01135509	          0.01135509	          0.50149446	
          0.41465963	         -5.58352314	          1.47106375	         -5.24865292	          0.74893340	          0.87143050	          0.00263628	        -15.24626119	         -0.99631312	         -4.71518624	        -14.04931175	          0.81353755	         38.23007426	         35.94762636	          0.65853894	         -5.18344154	        -20.79681797	         10.89160012	          0.39386770	        -12.17385585	         -2.48470390	         11.97910334	          0.11546023	          0.00999999	          0.00999999	          0.01731462	          0.16734587	          0.03311525	          0.18532140	          0.01350868	          0.51652774	          0.00999999	          0.01464105	          0.23292978	          0.14832440	          0.00999999	          0.12561402	          0.10239817	          0.01887788	          0.00999999	          0.36253276	          0.31887912	          0.03816224	          0.00999999	          0.19077017	          0.01464104	          0.18598547	          0.00999999	          0.00999999	          0.51585739	
          0.42279021	         -5.57250637	          1.65216445	         -5.05465243	          0.76624001	          0.86889513	          0.00226957	        -15.00453049	         -1.34580697	         -5.15974585	        -16.56117501	          0.16434724	         39.33747011	         35.53274694	          1.19394508	         -4.60177986	        -21.79177358	         10.47193595	          0.33650371	        -11.79824561	         -2.97087042	         12.06969925	          0.10168142	          0.01289381	          0.00999999	          0.01524833	          0.26644977	          0.07771003	          0.16320547	          0.01289381	          0.45488625	          0.00999999	          0.01289381	          0.20513236	          0.13062363	          0.00999999	          0.11062346	          0.09017816	          0.01662503	          0.02675592	          0.34790585	          0.28082466	          0.03360803	          0.00999999	          0.16800400	          0.01289381	          0.27516329	          0.02493351	          0.03467793	          0.51795723	
          0.43092079	         -5.55681767	          1.87250035	         -4.85543431	          0.78361044	          0.86639923	          0.00186924	        -14.53670846	         -1.76951224	         -5.61347550	        -19.48951185	         -0.48888890	         40.04823873	         34.92605694	          1.74556178	         -4.03419683	        -22.70661493	         10.42058529	          0.30827118	        -11.41817633	         -3.49494477	         12.11543076	          0.08954694	          0.01135509	          0.00999999	          0.01342862	          0.23465214	          0.06843626	          0.15542091	          0.01135509	          0.42898270	          0.00999999	          0.01135509	          0.18065223	          0.11503524	          0.00999999	          0.09742186	          0.08674489	          0.01464103	          0.11632176	          0.30638739	          0.24731155	          0.02959731	          0.08125260	          0.14795471	          0.01135508	          0.28507013	          0.02195799	          0.03053953	          0.60851150	
